# xmcd
#
# Track frame offsets:
# 150
# 14680
# 33986
# 51905
# 72112
# 88783
# 105409
# 120962
# 136277
# 152404
# 166269
# 171573
# 187535
# 195015
# 210780
#
# Disc length: 3091 seconds
#
# Revision: 0
# Processed by: cddbd v1.4PL0 Copyright (c) Steve Scherf et al.
# Submitted via: Axialis_AX_CDPlayer 2.6
#
DISCID=af0c110f
DTITLE=Te Loo and Comotives - Crawlin' Feels Better Than Walkin' In Line
DYEAR=1900
DGENRE=
TTITLE0=Rivers
TTITLE1=Back at a Loose
TTITLE2=Going Back
TTITLE3=Brilliant Wires
TTITLE4=Outlaw Girl
TTITLE5=Nowhere
TTITLE6=How Can I Get Close To You
TTITLE7=Walking On In Rhyme
TTITLE8=New Moon
TTITLE9=The Stranger In Yourself
TTITLE10=Honest Harmony
TTITLE11=Right Direction
TTITLE12=The Blonde With The BlackHair
TTITLE13=Homecoming Feeling
TTITLE14=Dust Under A Glass Bell
EXTD=
EXTT0=
EXTT1=
EXTT2=
EXTT3=
EXTT4=
EXTT5=
EXTT6=
EXTT7=
EXTT8=
EXTT9=
EXTT10=
EXTT11=
EXTT12=
EXTT13=
EXTT14=
PLAYORDER=
